<svg xmlns="http://www.w3.org/2000/svg" height="1200" width="1600" version="1.1" xmlns:xlink="http://www.w3.org/1999/xlink" xmlns:svgjs="http://svgjs.com/svgjs"><rect fill="#f3ebe9" width="1600" height="1200"></rect><g><path d="M980.12 245.49H577.18V624.7H980.12V245.49Z" fill="#ffffff" opacity="1" stroke-width="4" stroke="none"></path><path d="M677.96 245.49V624.7" stroke="#efdcd7" stroke-width="4" stroke-linecap="round" stroke-linejoin="round" opacity="1" fill="none"></path><path d="M778.65 245.49V624.7" stroke="#efdcd7" stroke-width="4" stroke-linecap="round" stroke-linejoin="round" opacity="1" fill="none"></path><path d="M879.43 245.49V624.7" stroke="#efdcd7" stroke-width="4" stroke-linecap="round" stroke-linejoin="round" opacity="1" fill="none"></path><path d="M978.2 340.99H579.2" stroke="#efdcd7" stroke-width="4" stroke-linecap="round" stroke-linejoin="round" opacity="1" fill="none"></path><path d="M978.2 435.82H579.2" stroke="#efdcd7" stroke-width="4" stroke-linecap="round" stroke-linejoin="round" opacity="1" fill="none"></path><path d="M978.2 530.74H579.2" stroke="#efdcd7" stroke-width="4" stroke-linecap="round" stroke-linejoin="round" opacity="1" fill="none"></path></g><g><path d="M1125.69 320.02C1147.41 320.02 1165.03 302.4 1165.03 280.67 1165.03 258.95 1147.41 241.33 1125.69 241.33 1103.96 241.33 1086.34 258.95 1086.34 280.67 1086.34 302.4 1103.96 320.02 1125.69 320.02Z" fill="#231f20" opacity="1" stroke-width="4" stroke="none"></path><path d="M1125.69 402.66C1193.06 402.66 1247.67 348.05 1247.67 280.67 1247.67 213.3 1193.06 158.69 1125.69 158.69 1058.31 158.69 1003.7 213.3 1003.7 280.67 1003.7 348.05 1058.31 402.66 1125.69 402.66Z" stroke="#2a4552" stroke-width="4" stroke-linecap="round" stroke-linejoin="round" opacity="1" fill="none"></path><path d="M1044 389.54C1055.34 389.54 1064.54 380.35 1064.54 369 1064.54 357.66 1055.34 348.46 1044 348.46 1032.65 348.46 1023.45 357.66 1023.45 369 1023.45 380.35 1032.65 389.54 1044 389.54Z" fill="#61ccff" opacity="1" stroke-width="4" stroke="none"></path></g><g><path d="M445.54 181.34H595.67C617.61 181.34 635.48 199.2 635.48 221.14V371.27C635.48 393.21 617.61 411.08 595.67 411.08H445.54C423.6 411.08 405.73 393.21 405.73 371.27V221.14C405.73 199.2 423.6 181.34 445.54 181.34Z" fill="#4a5154" opacity="0.2" stroke-width="4" stroke="none"></path><path d="M433.19 163.35H583.32C605.26 163.35 623.13 181.22 623.13 203.16V353.28C623.13 375.22 605.26 393.09 583.32 393.09H433.19C411.25 393.09 393.38 375.22 393.38 353.28V203.16C393.38 181.22 411.25 163.35 433.19 163.35Z" fill="#61ccff" opacity="1" stroke-width="4" stroke="none"></path><path d="M475.88 224.02V222.58C475.76 221.74 476 220.91 476.48 220.31 476.84 219.83 477.44 219.59 478.16 219.59 478.76 219.59 479.36 219.83 479.84 220.31 480.32 221.02 480.56 221.74 480.44 222.58V234.09C480.56 234.93 480.32 235.77 479.84 236.37 479 237.21 477.56 237.21 476.6 236.37 476.12 235.77 475.88 235.05 475.88 234.33 475.64 231.34 474.2 228.58 471.2 226.18 467.97 223.66 463.89 222.34 459.69 222.58 454.78 222.58 450.82 223.9 447.82 226.42 445.06 228.58 443.39 231.94 443.39 235.41 443.39 237.09 443.75 238.77 444.58 240.33 445.42 241.77 446.5 242.97 447.82 243.93 449.26 244.89 450.82 245.61 452.38 246.09 455.02 246.8 457.77 247.4 460.41 247.88 466.53 248.84 470.72 249.92 473.12 250.88 479 253.28 482.83 259.04 482.59 265.39 482.59 270.55 480.32 275.34 476.36 278.58 472.28 282.18 466.65 283.98 459.69 283.98 451.9 283.98 445.54 281.58 440.87 276.66V279.3C440.99 280.14 440.75 280.98 440.27 281.58 439.91 282.06 439.31 282.3 438.59 282.3 437.99 282.3 437.39 282.06 437.03 281.58 436.55 280.86 436.31 280.14 436.43 279.3V266.83C436.31 265.99 436.55 265.15 437.03 264.43 437.87 263.59 439.31 263.59 440.27 264.43 440.75 265.03 440.99 265.75 440.99 266.59 441.23 269.95 442.91 272.94 446.26 275.58 449.62 278.22 454.06 279.66 459.81 279.66 465.45 279.66 469.88 278.22 473.24 275.46 476.36 273.06 478.16 269.35 478.16 265.39 478.16 263.11 477.56 260.95 476.24 259.04 474.8 257.12 472.88 255.56 470.6 254.6 467.13 253.4 463.53 252.56 459.81 252.08 452.38 250.88 446.98 248.96 443.63 246.33 440.39 243.69 438.71 240.09 438.71 235.29 438.71 230.62 440.75 226.18 444.34 223.06 448.06 219.71 453.1 217.91 459.33 217.91 465.45 218.03 471.32 220.07 475.88 224.02Z" fill="#ffc930" stroke="#ffc930" stroke-width="4" opacity="1"></path><path d="M519.65 239.73V277.86H537.27C538.11 277.74 538.95 277.98 539.67 278.46 540.15 278.82 540.39 279.42 540.39 280.14 540.39 280.74 540.15 281.34 539.67 281.7 538.95 282.18 538.11 282.42 537.27 282.3H497.34C496.5 282.42 495.66 282.18 495.07 281.7 494.59 281.34 494.35 280.74 494.35 280.14 494.35 279.54 494.59 278.94 495.07 278.46 495.78 277.98 496.5 277.74 497.34 277.86H515.09V240.45H501.9C501.06 240.57 500.22 240.33 499.5 239.85 499.02 239.49 498.78 238.89 498.78 238.29 498.78 237.69 499.02 237.09 499.5 236.61 500.22 236.13 501.06 235.89 501.9 236.01H515.81C517.85 235.89 519.53 237.57 519.65 239.73ZM519.41 216.11V221.14C519.41 222.94 517.97 224.5 516.05 224.5 514.25 224.5 512.69 223.06 512.69 221.14V216.11C512.69 214.31 514.13 212.75 516.05 212.75 517.97 212.75 519.41 214.19 519.41 216.11Z" fill="#ffc930" stroke="#ffc930" stroke-width="4" opacity="1"></path><path d="M575.64 235.65C581.81 235.65 586.79 230.65 586.79 224.5 586.79 218.34 581.81 213.35 575.64 213.35 569.48 213.35 564.49 218.34 564.49 224.5 564.49 230.65 569.48 235.65 575.64 235.65Z" fill="#ffffff" opacity="1" stroke-width="4" stroke="none"></path></g><g><path d="M799.61 770.69C805.12 770.69 809.87 768.53 813 764.75 816.24 760.86 817.43 755.57 816.24 750.06L808.14 708.24C805.87 696.9 794.74 687.61 783.4 687.61H625.99C620.48 687.61 615.72 689.77 612.59 693.55 609.35 697.44 608.16 702.73 609.35 708.24L617.45 750.06C619.72 761.4 630.85 770.69 642.19 770.69H799.61Z" fill="#fe4f32" opacity="1" stroke-width="4" stroke="none"></path><path d="M797.34 852.8C797.45 852.8 797.66 852.8 797.77 852.8 798.96 852.59 799.71 851.4 799.5 850.32L783.94 770.37C783.72 769.18 782.54 768.42 781.46 768.64 780.27 768.86 779.51 770.04 779.73 771.12L795.28 851.07C795.39 852.05 796.37 852.8 797.34 852.8Z" fill="#231f20" opacity="1" stroke-width="4" stroke="none"></path><path d="M673.09 852.8C673.2 852.8 673.42 852.8 673.52 852.8 674.71 852.59 675.47 851.4 675.25 850.32L659.69 770.37C659.48 769.18 658.29 768.42 657.21 768.64 656.02 768.86 655.26 770.04 655.48 771.12L671.04 851.07C671.15 852.05 672.12 852.8 673.09 852.8Z" fill="#231f20" opacity="1" stroke-width="4" stroke="none"></path><path d="M931.1 1073.21C931.21 1073.21 931.43 1073.21 931.53 1073.21 932.72 1072.99 933.48 1071.8 933.26 1070.72L895.23 873.01C895.02 871.82 893.83 871.06 892.75 871.28 891.56 871.49 890.8 872.68 891.02 873.76L929.05 1071.48C929.16 1072.45 930.13 1073.21 931.1 1073.21Z" fill="#231f20" opacity="1" stroke-width="4" stroke="none"></path><path d="M839.92 1073.21C840.02 1073.21 840.24 1073.21 840.35 1073.21 841.54 1072.99 842.29 1071.8 842.08 1070.72L804.05 873.01C803.83 871.82 802.64 871.06 801.56 871.28 800.37 871.49 799.62 872.68 799.83 873.76L837.86 1071.48C837.97 1072.45 838.94 1073.21 839.92 1073.21Z" fill="#231f20" opacity="1" stroke-width="4" stroke="none"></path><path d="M622.54 1073.21C623.51 1073.21 624.48 1072.45 624.7 1071.48L662.73 873.76C662.95 872.57 662.19 871.49 661 871.28 659.81 871.06 658.73 871.82 658.52 873.01L620.49 1070.72C620.27 1071.91 621.03 1072.99 622.22 1073.21 622.32 1073.21 622.43 1073.21 622.54 1073.21Z" fill="#231f20" opacity="1" stroke-width="4" stroke="none"></path><path d="M713.73 1073.21C714.7 1073.21 715.67 1072.45 715.89 1071.48L753.92 873.76C754.13 872.57 753.38 871.49 752.19 871.28 751 871.06 749.92 871.82 749.7 873.01L711.67 1070.72C711.46 1071.91 712.21 1072.99 713.4 1073.21 713.4 1073.21 713.62 1073.21 713.73 1073.21Z" fill="#231f20" opacity="1" stroke-width="4" stroke="none"></path><path d="M897.6 874.41C904.19 874.41 909.48 869.12 909.48 862.53 909.48 855.94 904.19 850.64 897.6 850.64L656.67 850.64C650.08 850.64 644.78 855.94 644.78 862.53 644.78 869.12 650.08 874.41 656.67 874.41H897.6Z" fill="#fe4f32" opacity="1" stroke-width="4" stroke="none"></path><path d="M757.15 874.41C763.74 874.41 769.03 869.12 769.03 862.53 769.03 855.94 763.74 850.64 757.15 850.64H656.67C650.08 850.64 644.78 855.94 644.78 862.53 644.78 869.12 650.08 874.41 656.67 874.41H757.15Z" fill="#231f20" opacity="1" stroke-width="4" stroke="none"></path></g><g><path d="M988.44 1034.96L928.75 1017.21C928.75 1017.21 928.65 1017.21 928.65 1017.11 925.38 1002.14 922.01 984.09 919.03 963.17 919.03 963.07 919.03 963.07 919.13 963.07L979.72 957.42 1015.12 962.87C1015.12 962.87 1015.22 962.87 1015.22 962.97 1016.5 972.29 1018.78 981.71 1021.96 990.54V990.63L988.54 1034.96C988.54 1034.96 988.54 1034.96 988.44 1034.96Z" fill="#e5ac95" opacity="1" stroke-width="4" stroke="none"></path><path d="M780.51 724H826.32C826.52 724 936.68 731.24 976.54 771 1015.51 809.87 1005.7 902.88 1015.31 963.07 1015.31 963.17 1015.31 963.17 1015.22 963.17 1011.65 963.17 922.3 963.17 919.23 963.17 919.13 963.17 919.13 963.17 919.13 963.07 916.95 947.1 915.36 932.53 914.17 916.96 911.4 879.38 912.39 851.61 912.39 849.73 912.39 849.63 912.39 849.63 912.29 849.63 909.12 849.63 841.19 849.63 839.8 849.63 765.93 842.49 768.31 768.02 780.51 724 780.41 724 780.41 724 780.51 724Z" fill="#ffc930" opacity="1" stroke-width="4" stroke="none"></path><path d="M979.52 1002.43C978.63 996.29 983.58 990.44 989.83 990.54H1021.86C1021.86 990.54 1021.96 990.54 1021.96 990.63 1023.64 995.29 1025.92 999.86 1028.7 1003.92 1041.99 1024.15 1069.95 1030.4 1080.86 1052.81 1080.86 1052.91 1080.86 1052.91 1080.76 1052.91 1078.48 1053.5 1040.7 1062.62 1039.81 1062.62 1025.53 1062.62 940.05 1053.3 937.48 1053 937.48 1053 937.38 1053 937.38 1052.91 934.9 1043.98 931.62 1032.18 928.35 1017.31 928.35 1017.21 928.35 1017.21 928.45 1017.21H980.51C981.01 1017.21 981.5 1016.71 981.4 1016.22L979.52 1002.43Z" fill="#61ccff" opacity="1" stroke-width="4" stroke="none"></path><path d="M1083.63 1072.24L1083.54 1072.34H943.92C943.92 1072.34 943.82 1072.34 943.82 1072.24 943.52 1071.55 941.14 1065.1 937.57 1053 937.57 1052.91 937.57 1052.91 937.67 1052.91H1080.86C1080.96 1052.91 1081.06 1053 1081.06 1053 1083.24 1059.05 1083.63 1063.91 1083.63 1072.24Z" fill="#ffc930" opacity="1" stroke-width="4" stroke="none"></path><path d="M929.44 797.47C983.58 797.47 958.89 876.21 955.82 963.07 952.65 1024.84 981.9 1013.64 1003.22 1053.1 1005.6 1059.25 1006.49 1065.9 1005.8 1072.54H954.23C954.23 1072.54 951.75 1065.99 947.89 1053.1 936.68 1014.83 927.46 961.48 924.39 918.15 921.41 878.59 922.5 849.63 922.5 849.63 922.5 849.63 848.43 797.47 929.44 797.47Z" fill="#ffc930" opacity="0.3" stroke-width="4" stroke="none"></path><path d="M845.95 1017.11C843.57 1000.95 841.19 982.7 839.9 963.17 839.9 963.07 839.9 963.07 840 963.07L889.19 953.45 941.54 963.07 941.64 963.17C941.24 973.08 941.24 982.01 941.74 990.44 941.74 990.44 941.74 990.44 941.74 990.54L916.26 1040.51C916.26 1040.51 916.26 1040.61 916.16 1040.61 910.21 1040.51 848.03 1018 845.95 1017.11 845.95 1017.21 845.95 1017.21 845.95 1017.11Z" fill="#e5ac95" opacity="1" stroke-width="4" stroke="none"></path><path d="M898.51 1017.11C899.3 1017.11 899.8 1016.42 899.7 1015.62L897.71 1002.24C896.82 996.09 901.78 990.24 908.03 990.34H941.64C941.74 990.34 941.74 990.34 941.74 990.44 941.94 994.4 942.33 998.17 942.83 1001.74 946.2 1026.03 982.99 1029.9 993 1052.81 993 1052.91 993 1052.91 992.9 1052.91 989.33 1053.2 917.64 1059.65 917.15 1059.75L851.8 1052.91C851.8 1052.91 851.7 1052.91 851.7 1052.81 849.92 1043.49 847.94 1031.39 845.85 1017.31 845.85 1017.21 845.85 1017.21 845.95 1017.21 848.33 1017.21 890.18 1017.31 898.51 1017.11Z" fill="#61ccff" opacity="1" stroke-width="4" stroke="none"></path><path d="M676.79 724H803.91C804.21 724 891.86 732.23 930.53 771 963.06 802.63 943.52 904.27 941.64 963.07 941.64 963.17 941.64 963.17 941.54 963.17 938.27 963.17 843.18 963.17 840 963.17 839.9 963.17 839.9 963.17 839.9 963.07 838.61 946.61 838.32 932.13 838.22 916.86 838.02 875.61 841.59 852.8 841.79 850.92 841.79 850.82 841.79 850.82 841.69 850.82 837.52 850.82 737.28 850.82 735.89 850.82 662.21 841.7 664.49 769.41 676.79 724 676.69 724 676.69 724 676.79 724Z" fill="#ffc930" opacity="1" stroke-width="4" stroke="none"></path><path d="M995.78 1072.24C995.78 1072.34 995.78 1072.34 995.68 1072.34H856.07C856.07 1072.34 855.97 1072.34 855.97 1072.24 855.77 1071.45 854.08 1064.41 851.8 1053 851.8 1052.91 851.8 1052.91 851.9 1052.91 856.36 1052.91 986.36 1052.91 992.81 1052.91 993 1052.91 993.1 1053 993.2 1053.1 996.18 1057.57 996.47 1065.7 995.78 1072.24Z" fill="#ffc930" opacity="1" stroke-width="4" stroke="none"></path><path d="M619.28 601.24C619.97 597.18 620.86 593.7 622.05 590.83 625.92 579.62 632.86 569.81 644.46 562.87 657.16 555.63 676.69 553.25 676.89 553.25L766.53 554.64C785.27 562.67 797.76 581.51 803.61 591.62 823.15 625.34 826.32 640.9 837.92 669.16L838.02 669.26C855.67 664.11 874.21 658.26 895.93 652.01 895.93 652.01 896.03 652.01 896.03 652.11L911.1 687.21V725.49C911.1 725.49 911.1 725.58 911 725.58 882.54 735 855.57 739.86 830.98 739.86 825.03 739.86 819.28 739.47 813.53 739.17 806.09 738.08 793.99 737.19 779.71 736.49 779.62 736.49 779.62 736.49 779.62 736.59L777.83 769.21C777.83 769.21 777.83 769.31 777.73 769.31 761.27 773.58 725.97 776.95 697.61 776.95 671.14 776.95 652.99 774.17 646.74 769.12 615.11 747.8 610.65 657.96 619.28 601.24Z" fill="#61ccff" opacity="1" stroke-width="4" stroke="none"></path><path d="M841.69 850.72H794.89C794.79 850.72 794.79 850.52 794.89 850.52 818.98 844.08 829.69 819.49 847.44 819.39 847.54 819.39 847.54 819.49 847.54 819.49 843.97 837.73 841.99 849.63 841.69 850.72 841.79 850.72 841.79 850.72 841.69 850.72Z" fill="#ffda70" opacity="0.2" stroke-width="4" stroke="none"></path><path d="M868.86 736.39C884.23 742.94 919.83 760.19 930.53 771 955.72 796.19 949.77 859.65 944.81 918.15 943.52 933.72 942.33 948.99 941.64 963.17" stroke="#ffdf86" stroke-width="4" stroke-linecap="round" stroke-linejoin="round" opacity="1" fill="none"></path><path d="M841.89 849.63C843.67 841.5 847.64 819.49 847.64 819.49" stroke="#ffca32" stroke-width="4" stroke-linecap="round" stroke-linejoin="round" opacity="1" fill="none"></path><path d="M1041.49 1017.41L1029.39 1024.55" stroke="#134258" stroke-width="4" stroke-linecap="round" stroke-linejoin="round" opacity="1" fill="none"></path><path d="M1051.31 1024.55L1040.7 1034.96" stroke="#134258" stroke-width="4" stroke-linecap="round" stroke-linejoin="round" opacity="1" fill="none"></path><path d="M952.35 1018.3L941.84 1024.55" stroke="#134258" stroke-width="4" stroke-linecap="round" stroke-linejoin="round" opacity="1" fill="none"></path><path d="M962.36 1025.84L953.14 1034.96" stroke="#134258" stroke-width="4" stroke-linecap="round" stroke-linejoin="round" opacity="1" fill="none"></path><path d="M768.61 520.23C759.78 531.14 739.95 528.66 739.95 528.66L741.64 538.97 743.32 547.6 724.68 594.6 682.44 553.94 674.31 538.97 672.92 524.29 671.53 486.42C668.56 465.79 666.18 441.3 687.2 428.51 710.6 414.13 740.15 418.69 751.85 430.19 758.49 436.74 761.97 443.78 764.05 453.5 765.63 460.93 766.43 468.27 767.72 473.82 768.71 478.19 770.49 483.44 771.88 488.89 774.66 499.5 776.24 511.11 768.61 520.23Z" fill="#e5ac95" opacity="1" stroke-width="4" stroke="none"></path><path d="M739.95 528.66L741.64 538.97 742.33 545.51 721.71 524.19 739.95 528.66Z" fill="#171717" opacity="0.2" stroke-width="4" stroke="none"></path><path d="M682.14 425.83C699.69 413.73 737.67 413.34 752.64 426.33 760.87 433.27 763.85 451.91 764.05 453.3 764.05 453.4 764.05 453.4 763.95 453.4 760.08 453.89 756.02 453.69 750.36 450.42 750.26 450.42 750.26 450.42 750.26 450.52 749.07 456.27 741.54 464.8 728.35 461.33 728.25 461.33 728.25 461.33 728.25 461.43 729.14 469.76 725.38 474.62 720.91 478.68V478.78C721.11 479.57 723.39 490.88 723.39 490.88 724.88 497.92 732.02 502.08 738.86 499.8L771.88 488.89C771.98 488.89 771.98 488.89 771.98 488.99 775.55 499.11 778.72 515.87 771.19 524.99 762.36 535.9 741.34 533.61 741.34 533.61 741.34 533.61 734.7 532.62 727.46 530.64 718.24 528.16 710.5 515.07 711.3 505.55L713.48 480.17V480.07C709.61 476.4 701.18 469.46 693.45 469.46 690.08 469.46 687.1 470.85 684.82 473.43 672.13 487.61 693.74 508.53 694.34 509.82V509.92C689.38 517.06 681.75 522.41 673.12 524.19 673.02 524.19 673.02 524.19 673.02 524.1 670.74 496.23 652.1 444.57 682.14 425.83Z" fill="#ece4e4" opacity="1" stroke-width="4" stroke="none"></path><path d="M703.86 495.44L694.64 486.91" stroke="#171717" stroke-width="4" stroke-linecap="round" stroke-linejoin="round" opacity="1" fill="none"></path><path d="M724.68 529.65C724.68 529.65 731.23 532.92 740.84 533.61" stroke="#000000" stroke-width="4" stroke-linecap="round" stroke-linejoin="round" opacity="1" fill="none"></path><path d="M757.5 503.27C755.12 505.55 750.66 505.45 748.78 503.27" stroke="#171717" stroke-width="4" stroke-linecap="round" stroke-linejoin="round" opacity="1" fill="none"></path><path d="M753.04 490.38C754.53 489.39 754.73 488.8 754.93 487.9 755.22 486.51 754.43 484.93 753.54 483.44" stroke="#171717" stroke-width="4" stroke-linecap="round" stroke-linejoin="round" opacity="1" fill="none"></path><path d="M737.28 486.42C735.63 486.42 734.3 485.08 734.3 483.44 734.3 481.79 735.63 480.47 737.28 480.47 738.92 480.47 740.25 481.79 740.25 483.44 740.25 485.08 738.92 486.42 737.28 486.42Z" fill="#17151c" opacity="1" stroke-width="4" stroke="none"></path><path d="M760.58 479.28C758.93 479.28 757.6 477.94 757.6 476.3 757.6 474.66 758.93 473.33 760.58 473.33 762.22 473.33 763.55 474.66 763.55 476.3 763.55 477.94 762.22 479.28 760.58 479.28Z" fill="#17151c" opacity="1" stroke-width="4" stroke="none"></path><path d="M954.43 707.54L977.54 658.75C977.54 658.75 974.76 652.51 960.78 653 960.68 653 960.68 652.9 960.78 652.8 965.04 651.32 971.19 647.45 972.28 642.99 976.44 628.31 926.27 644.18 896.03 652.01 895.93 652.01 895.93 652.11 895.93 652.11 896.52 654.79 910.31 722.31 911 725.49 911 725.58 911.1 725.58 911.1 725.58 913.58 724.59 952.94 708.13 954.43 707.54Z" fill="#e5ac95" opacity="1" stroke-width="4" stroke="none"></path><path d="M818.39 726.87C812.83 718.05 789.93 667.58 787.25 661.83 787.25 661.73 787.05 661.73 787.05 661.93L792.8 710.71 818.39 726.87Z" fill="#1b2529" opacity="0.3" stroke-width="4" stroke="none"></path><path d="M766.43 554.64C761.97 552.36 751.06 548.39 743.32 547.6L723.69 546.7 676.79 552.36C669.15 553.45 653.39 557.31 644.56 562.77 644.46 562.77 644.46 562.87 644.56 562.97L738.37 636.74C738.46 636.74 738.46 636.74 738.56 636.74L766.53 554.74C766.53 554.64 766.53 554.64 766.43 554.64Z" fill="#fe4f32" opacity="1" stroke-width="4" stroke="none"></path><path d="M721.11 548.69L738.76 566.34C738.86 566.44 738.96 566.34 738.96 566.34L743.42 547.7 741.74 539.17 741.64 539.07 674.51 539.07C674.41 539.07 674.41 539.17 674.41 539.17 675.1 545.51 675.9 551.86 676 552.55 676 552.55 676 552.65 676.09 552.65L712.68 568.92C712.78 568.92 712.78 568.92 712.78 568.82L721.11 548.79C721.01 548.69 721.11 548.69 721.11 548.69Z" fill="#ffc930" opacity="1" stroke-width="4" stroke="none"></path><path d="M787.15 661.93L792.9 710.71" stroke="#1b2529" stroke-width="4" stroke-linecap="round" stroke-linejoin="round" opacity="1" fill="none"></path><path d="M849.52 665.79L838.02 669.26" stroke="#1b2529" stroke-width="4" stroke-linecap="round" stroke-linejoin="round" opacity="1" fill="none"></path><path d="M933.11 741.95L1004.01 609.27 902.77 609.27 831.97 741.95 933.11 741.95Z" fill="#fe4f32" opacity="1" stroke-width="4" stroke="none"></path><path d="M940.25 726.87C949.77 726.58 970.1 719.83 964.45 708.33 971.49 705.36 970.49 697.32 970.49 697.23 976.84 693.56 976.05 686.42 973.57 683.15 983.78 677.49 981.6 663.21 977.54 658.75 974.26 663.31 964.74 661.83 961.17 661.63 960.08 662.22 930.43 653.7 937.97 673.23 928.65 673.43 921.41 683.24 930.93 690.48 928.35 691.28 920.32 695.94 923.89 702.58 926.96 708.43 937.87 708.93 944.22 708.83 944.61 708.83 944.81 709.32 944.42 709.52 941.34 711.11 934.9 714.98 934 718.84 932.42 723.7 934.3 726.97 940.25 726.87Z" fill="#e5ac95" opacity="1" stroke-width="4" stroke="none"></path><path d="M964.45 708.33C957.31 710.31 944.52 709.32 944.52 709.32" stroke="#000000" stroke-width="4" stroke-linecap="round" stroke-linejoin="round" opacity="1" fill="none"></path><path d="M970.49 697.23C947.19 696.23 930.93 690.48 930.93 690.48" stroke="#000000" stroke-width="4" stroke-linecap="round" stroke-linejoin="round" opacity="1" fill="none"></path><path d="M973.57 683.24C965.54 683.24 944.02 678.29 937.97 673.23" stroke="#000000" stroke-width="4" stroke-linecap="round" stroke-linejoin="round" opacity="1" fill="none"></path><path d="M781.2 708.23L781.3 708.13C818.09 709.72 840.1 715.77 861.82 730.84 875.5 740.26 902.47 769.81 904.06 781.11 904.75 784.58 901.48 786.86 898.51 786.86 892.66 786.86 886.41 776.16 884.72 778.24 883.73 779.63 897.12 808.38 880.16 804.02H880.06C870.15 817.01 853.59 790.93 849.52 785.58 849.22 785.18 848.63 785.48 848.73 785.97 850.22 790.83 858.25 807.79 849.13 808.98 841.99 808.98 826.91 781.01 826.12 779.63 826.12 779.63 826.12 779.63 826.02 779.63 804.31 777.64 794.39 769.91 793.99 769.51 793.5 769.51 783.98 769.41 777.93 769.31 777.93 769.31 777.93 769.21 777.83 769.21L779.62 736.59C779.62 736.59 781.2 708.23 781.2 708.23Z" fill="#e5ac95" opacity="1" stroke-width="4" stroke="none"></path><path d="M884.72 778.24C877.58 765.05 867.27 750.97 867.27 750.97" stroke="#000000" stroke-width="4" stroke-linecap="round" stroke-linejoin="round" opacity="1" fill="none"></path><path d="M880.06 804.12C872.03 787.96 858.25 768.32 851.21 760.29" stroke="#000000" stroke-width="4" stroke-linecap="round" stroke-linejoin="round" opacity="1" fill="none"></path><path d="M848.73 784.88C845.65 779.82 838.91 771.3 838.91 771.3" stroke="#000000" stroke-width="4" stroke-linecap="round" stroke-linejoin="round" opacity="1" fill="none"></path><path d="M695.83 658.45L726.57 707.64C718.14 707.84 710.11 708.13 702.37 708.53 701.58 708.53 700.78 707.93 700.78 707.14 700.29 701.59 698.41 681.06 694.74 658.95 694.54 658.26 695.43 657.86 695.83 658.45Z" fill="#1b2529" opacity="0.3" stroke-width="4" stroke="none"></path><path d="M695.33 658.16L700.88 708.63" stroke="#1b2529" stroke-width="4" stroke-linecap="round" stroke-linejoin="round" opacity="1" fill="none"></path><path d="M781.2 708.23C731.62 706.25 700.88 708.63 700.88 708.63" stroke="#1b2529" stroke-width="4" stroke-linecap="round" stroke-linejoin="round" opacity="1" fill="none"></path><path d="M726.76 584.19C723.42 584.19 720.72 581.48 720.72 578.14 720.72 574.8 723.42 572.09 726.76 572.09 730.11 572.09 732.81 574.8 732.81 578.14 732.81 581.48 730.11 584.19 726.76 584.19Z" fill="#000000" opacity="1" stroke-width="4" stroke="none"></path></g><g><path d="M476.34 660.15H504.18V687.8H476.34C468.74 687.8 462.52 681.58 462.52 673.97 462.52 666.37 468.74 660.15 476.34 660.15Z" stroke="#4a1911" stroke-width="4" stroke-linecap="round" stroke-linejoin="round" opacity="1" fill="none"></path><path d="M518.3 729.26C501.71 729.26 488.19 715.74 488.19 699.15V636.46H573.09V699.15C573.09 715.74 559.57 729.26 542.98 729.26H518.3Z" fill="#fe4f32" opacity="1" stroke-width="4" stroke="none"></path><path d="M526.2 729.26C542.78 729.16 556.31 715.74 556.31 699.15V636.46H573.09V699.15C573.09 715.74 559.57 729.26 542.98 729.26H526.2Z" fill="#4a1911" opacity="0.2" stroke-width="4" stroke="none"></path><path d="M530.64 659.16C513.66 659.16 503 652.94 497.07 647.81 491.74 643.17 489.87 638.43 489.37 636.95 489.27 636.75 489.47 636.46 489.77 636.46H572.5C572.6 636.46 572.7 636.56 572.6 636.65 571.61 638.73 561.54 659.16 530.64 659.16Z" fill="#4a1911" opacity="1" stroke-width="4" stroke="none"></path></g><g><path d="M1136 728.84H1077.3 1072.39L1066.59 684.74V672.02C1066.59 649.85 1084.61 631.83 1106.78 631.83 1128.95 631.83 1146.96 649.85 1146.96 672.02V684.74L1142.3 728.84H1136Z" fill="#fe4f32" opacity="1" stroke-width="4" stroke="none"></path><path d="M1066.46 684.74H1146.84V727.83C1146.84 728.84 1146.08 729.59 1145.08 729.59H1068.35C1067.35 729.59 1066.59 728.84 1066.59 727.83V684.74H1066.46Z" fill="#ffc1b7" opacity="1" stroke-width="4" stroke="none"></path><path d="M1094.18 616.72H1119.5C1120.13 616.72 1120.64 617.22 1120.64 617.85V634.35H1093.17V617.85C1093.05 617.22 1093.55 616.72 1094.18 616.72Z" fill="#fe4f32" opacity="1" stroke-width="4" stroke="none"></path><path d="M1106.78 616.72V601.35C1106.78 596.68 1103 592.78 1098.21 592.78H1084.23" stroke="#ec5d45" stroke-width="4" stroke-linecap="round" stroke-linejoin="round" opacity="1" fill="none"></path></g><g><path d="M1200.25 726.8H450V753.6H1200.25V726.8Z" fill="#231f20" opacity="1" stroke-width="4" stroke="none"></path></g></svg>